<svg id="Warstwa_1" data-name="Warstwa 1" xmlns="http://www.w3.org/2000/svg" viewBox="0 0 194.26 135.34"><title>diamond</title><path d="M129.56,34.26H69.65q4.5-16.14,9-32.26h41.93Q125.07,18.13,129.56,34.26Z" transform="translate(-2.74 -2)"/><path d="M195.45,34.26h-59.9q-4.5-16.14-9-32.26h29.95Z" transform="translate(-2.74 -2)"/><path d="M3.76,34.26h59.9q4.5-16.14,9-32.26H42.7Z" transform="translate(-2.74 -2)"/><path d="M98.64,137.34Q84.29,87.18,69.92,37h59.9Q114.24,87.18,98.64,137.34Z" transform="translate(-2.74 -2)"/><path d="M103.66,132.68q16-47.85,31.94-95.68H197Z" transform="translate(-2.74 -2)"/><path d="M93.41,132.68Q78.77,84.83,64.14,37H2.74Q48.07,84.84,93.41,132.68Z" transform="translate(-2.74 -2)"/></svg>