<?xml version="1.0" encoding="utf-8"?>
<!-- Generator: Adobe Illustrator 22.1.0, SVG Export Plug-In . SVG Version: 6.00 Build 0)  -->
<svg version="1.1" id="Warstwa_1" xmlns="http://www.w3.org/2000/svg" xmlns:xlink="http://www.w3.org/1999/xlink" x="0px" y="0px"
	 viewBox="0 0 236 171" style="enable-background:new 0 0 236 171;" xml:space="preserve">
<style type="text/css">
	.st0{opacity:0.5;stroke:#000000;stroke-width:0.25;stroke-miterlimit:10;enable-background:new    ;}
	.st1{stroke:#000000;stroke-width:0.25;stroke-miterlimit:10;}
</style>
<g>
	<path class="st0" d="M99.4,98.8c0,34.1,31.2,61.8,69.8,61.8c1.6,0,3.2-0.1,4.7-0.2c-5.2,1.1-10.6,1.7-16.2,1.7
		c-39.2,0-71.1-28.2-71.1-62.9s31.8-62.9,71.1-62.9c3.8,0,7.5,0.3,11.1,0.8C130.4,37.2,99.4,64.8,99.4,98.8z"/>
	<path class="st0" d="M137.9,99.5c0,34.1-31.2,61.8-69.8,61.8c-1.6,0-3.2-0.1-4.7-0.2c5.2,1.1,10.6,1.7,16.2,1.7
		c39.2,0,71.1-28.2,71.1-62.9S118.9,37,79.6,37c-3.8,0-7.5,0.3-11.1,0.8C106.9,37.9,137.9,65.5,137.9,99.5z"/>
	<path class="st1" d="M21.3,100.3c0-34.1,31.2-61.8,69.8-61.8c1.6,0,3.2,0.1,4.7,0.2C90.6,37.6,85.2,37,79.6,37
		C40.3,37,8.5,65.2,8.5,99.9s31.8,62.9,71.1,62.9c3.8,0,7.5-0.3,11.1-0.8C52.3,161.9,21.3,134.3,21.3,100.3z"/>
	<path class="st1" d="M215.8,98.8c0,34.1-31.2,61.8-69.8,61.8c-1.6,0-3.2-0.1-4.7-0.2c5.2,1.1,10.6,1.7,16.2,1.7
		c39.2,0,71.1-28.2,71.1-62.9s-31.8-62.9-71.1-62.9c-3.8,0-7.5,0.3-11.1,0.8C184.8,37.2,215.8,64.8,215.8,98.8z"/>
	<path class="st1" d="M128.1,23.3H109c1-3.5,1.9-6.9,2.9-10.4c4.5,0,8.9,0,13.4,0C126.2,16.3,127.1,19.8,128.1,23.3z"/>
	<path class="st1" d="M149.1,23.3H130c-1-3.5-1.9-6.9-2.9-10.4c3.2,0,6.4,0,9.5,0C140.8,16.3,144.9,19.8,149.1,23.3z"/>
	<path class="st1" d="M88,23.3h19.1c1-3.5,1.9-6.9,2.9-10.4c-3.2,0-6.4,0-9.5,0C96.3,16.3,92.1,19.8,88,23.3z"/>
	<path class="st1" d="M118.2,56.6c-3.1-10.8-6.1-21.6-9.2-32.4h19.1C124.9,35,121.5,45.8,118.2,56.6z"/>
	<path class="st1" d="M119.8,55.1c3.4-10.3,6.8-20.6,10.2-30.9h19.6C139.7,34.5,129.7,44.8,119.8,55.1z"/>
	<path class="st1" d="M116.6,55.1c-3.1-10.3-6.2-20.6-9.3-30.9H87.7C97.3,34.5,106.9,44.8,116.6,55.1z"/>
</g>
</svg>
