<svg id="Warstwa_2" data-name="Warstwa 2" xmlns="http://www.w3.org/2000/svg" viewBox="0 0 468.04 381.51"><defs><style>.cls-1,.cls-2,.cls-3,.cls-5,.cls-6,.cls-7,.cls-8,.cls-9{fill:none;stroke:#fff;stroke-miterlimit:10;stroke-width:0.5px;}.cls-2{stroke-dasharray:5 5;}.cls-3{stroke-dasharray:5 5;}.cls-4{fill:#fff;}.cls-5{stroke-dasharray:5.05 5.05;}.cls-6{stroke-dasharray:5.05 5.05;}.cls-7{stroke-dasharray:5.06 5.06;}.cls-8{stroke-dasharray:5.04 5.04;}.cls-9{stroke-dasharray:4.95 4.95;}</style></defs><title>background-lines-grid</title><line class="cls-1" x1="233.32" y1="381.43" x2="233.32" y2="378.93"/><line class="cls-2" x1="233.32" y1="373.93" x2="233.32" y2="6.49"/><line class="cls-1" x1="233.32" y1="3.99" x2="233.32" y2="1.49"/><line class="cls-1" x1="8.23" y1="191.81" x2="10.73" y2="191.81"/><line class="cls-3" x1="15.73" y1="191.81" x2="453.4" y2="191.81"/><line class="cls-1" x1="455.9" y1="191.81" x2="458.4" y2="191.81"/><polygon class="cls-4" points="9.69 196.8 1.06 191.81 9.69 186.83 9.69 196.8"/><polygon class="cls-4" points="456.94 196.8 465.57 191.81 456.94 186.83 456.94 196.8"/><line class="cls-1" x1="8.59" y1="96.65" x2="11.09" y2="96.65"/><line class="cls-3" x1="16.09" y1="96.65" x2="453.75" y2="96.65"/><line class="cls-1" x1="456.25" y1="96.65" x2="458.75" y2="96.65"/><polygon class="cls-4" points="10.04 101.64 1.41 96.65 10.04 91.67 10.04 101.64"/><polygon class="cls-4" points="457.29 101.64 465.93 96.65 457.29 91.67 457.29 101.64"/><line class="cls-1" x1="0.7" y1="69.87" x2="3.2" y2="69.87"/><line class="cls-5" x1="8.25" y1="69.87" x2="460.2" y2="69.87"/><line class="cls-1" x1="462.72" y1="69.87" x2="465.22" y2="69.87"/><line class="cls-1" x1="165.3" y1="0.79" x2="166.13" y2="3.14"/><line class="cls-6" x1="167.82" y1="7.9" x2="298.95" y2="376.69"/><line class="cls-1" x1="299.8" y1="379.07" x2="300.63" y2="381.43"/><line class="cls-1" x1="301.34" y1="0.08" x2="300.5" y2="2.44"/><line class="cls-7" x1="298.81" y1="7.21" x2="167.68" y2="376.69"/><line class="cls-1" x1="166.84" y1="379.07" x2="166" y2="381.43"/><line class="cls-1" x1="135.69" y1="381.07" x2="135.69" y2="378.57"/><line class="cls-2" x1="135.69" y1="373.57" x2="135.69" y2="6.14"/><line class="cls-1" x1="135.69" y1="3.64" x2="135.69" y2="1.14"/><line class="cls-1" x1="123.71" y1="380.37" x2="123.71" y2="377.87"/><line class="cls-2" x1="123.71" y1="372.87" x2="123.71" y2="5.44"/><line class="cls-1" x1="123.71" y1="2.94" x2="123.71" y2="0.44"/><line class="cls-1" x1="3.52" y1="317.99" x2="6.02" y2="317.99"/><line class="cls-5" x1="11.07" y1="317.99" x2="463.02" y2="317.99"/><line class="cls-1" x1="465.54" y1="317.99" x2="468.04" y2="317.99"/><line class="cls-1" x1="1.41" y1="306.71" x2="3.91" y2="306.71"/><line class="cls-5" x1="8.96" y1="306.71" x2="460.9" y2="306.71"/><line class="cls-1" x1="463.43" y1="306.71" x2="465.93" y2="306.71"/><line class="cls-1" x1="342.22" y1="381.07" x2="342.22" y2="378.57"/><line class="cls-2" x1="342.22" y1="373.57" x2="342.22" y2="6.14"/><line class="cls-1" x1="342.22" y1="3.64" x2="342.22" y2="1.14"/><line class="cls-1" x1="330.24" y1="380.37" x2="330.24" y2="377.87"/><line class="cls-2" x1="330.24" y1="372.87" x2="330.24" y2="5.44"/><line class="cls-1" x1="330.24" y1="2.94" x2="330.24" y2="0.44"/><line class="cls-1" x1="258.34" y1="0.08" x2="257.5" y2="2.44"/><line class="cls-8" x1="255.82" y1="7.19" x2="125.38" y2="375.28"/><line class="cls-1" x1="124.54" y1="377.66" x2="123.71" y2="380.02"/><line class="cls-1" x1="207.59" y1="0.79" x2="208.42" y2="3.14"/><line class="cls-8" x1="210.11" y1="7.89" x2="340.54" y2="375.99"/><line class="cls-1" x1="341.39" y1="378.36" x2="342.22" y2="380.72"/><line class="cls-1" y1="125.55" x2="2.5" y2="125.55"/><line class="cls-9" x1="7.45" y1="125.55" x2="460.15" y2="125.58"/><line class="cls-1" x1="462.62" y1="125.58" x2="465.12" y2="125.58"/><line class="cls-1" x1="0.7" y1="255.25" x2="3.2" y2="255.25"/><line class="cls-5" x1="8.25" y1="255.25" x2="460.2" y2="255.25"/><line class="cls-1" x1="462.72" y1="255.25" x2="465.22" y2="255.25"/><line class="cls-1" x1="7.88" y1="34.87" x2="10.38" y2="34.87"/><line class="cls-3" x1="15.38" y1="34.87" x2="453.05" y2="34.87"/><line class="cls-1" x1="455.55" y1="34.87" x2="458.05" y2="34.87"/><polygon class="cls-4" points="9.34 39.85 0.7 34.87 9.34 29.88 9.34 39.85"/><polygon class="cls-4" points="456.59 39.85 465.22 34.87 456.59 29.88 456.59 39.85"/></svg>