<svg id="Warstwa_1" data-name="Warstwa 1" xmlns="http://www.w3.org/2000/svg" viewBox="0 0 200 140"><defs><style>.cls-1{opacity:0.5;}</style></defs><title>hnoss-ring-logo-black</title><path class="cls-1" d="M82.31,80.67c0,31.87,28.39,57.69,63.43,57.69,1.44,0,2.87-.06,4.28-.14a71.17,71.17,0,0,1-14.73,1.55c-35.67,0-64.59-26.3-64.59-58.74s28.92-58.75,64.59-58.75a70.8,70.8,0,0,1,10.06.72C110.5,23.19,82.31,48.93,82.31,80.67Z" transform="translate(0.29 -0.47)"/><path class="cls-1" d="M117.33,81.38c0,31.86-28.4,57.69-63.44,57.69-1.44,0-2.87-.06-4.28-.15a70.5,70.5,0,0,0,14.73,1.55c35.67,0,64.59-26.3,64.59-58.74S100,23,64.34,23a70.8,70.8,0,0,0-10.06.71C89.13,23.89,117.33,49.64,117.33,81.38Z" transform="translate(0.29 -0.47)"/><path d="M11.31,82.08c0-31.86,28.4-57.69,63.44-57.69,1.44,0,2.87.06,4.28.15A70.5,70.5,0,0,0,64.3,23C28.63,23-.29,49.29-.29,81.73s28.92,58.74,64.59,58.74a70.91,70.91,0,0,0,10.06-.71C39.51,139.57,11.31,113.82,11.31,82.08Z" transform="translate(0.29 -0.47)"/><path d="M188.11,80.67c0,31.87-28.4,57.69-63.44,57.69-1.44,0-2.86-.06-4.28-.14a71.17,71.17,0,0,0,14.73,1.55c35.67,0,64.59-26.3,64.59-58.74s-28.92-58.75-64.59-58.75a70.9,70.9,0,0,0-10.06.72C159.92,23.19,188.11,48.93,188.11,80.67Z" transform="translate(0.29 -0.47)"/><path d="M108.39,10.2H91L93.64.47h12.15Q107.08,5.35,108.39,10.2Z" transform="translate(0.29 -0.47)"/><path d="M127.48,10.2H110.12q-1.29-4.86-2.6-9.73h8.68Z" transform="translate(0.29 -0.47)"/><path d="M71.94,10.2H89.3Q90.59,5.34,91.9.47H83.22Z" transform="translate(0.29 -0.47)"/><path d="M99.43,41.28Q95.28,26.15,91.11,11h17.36Q103.94,26.15,99.43,41.28Z" transform="translate(0.29 -0.47)"/><path d="M100.89,39.87,110.14,11h17.79Z" transform="translate(0.29 -0.47)"/><path d="M97.92,39.87Q93.68,25.46,89.44,11H71.65Z" transform="translate(0.29 -0.47)"/></svg>